<svg xmlns="http://www.w3.org/2000/svg" width="88" height="88" viewBox="0 0 88 88">
  <g id="Group_70" data-name="Group 70" transform="translate(-429 -2281)">
    <path id="Subtraction_6" data-name="Subtraction 6" d="M44,0A44,44,0,1,1,0,44,44,44,0,0,1,44,0Z" transform="translate(429 2281)" fill="#fff"/>
    <path id="Subtraction_7" data-name="Subtraction 7" d="M10.167,71.917h0A43.668,43.668,0,0,1,0,43.841a44.166,44.166,0,0,1,.891-8.836,43.6,43.6,0,0,1,6.6-15.677A43.969,43.969,0,0,1,26.776,3.445,43.622,43.622,0,0,1,35.006.891a44.269,44.269,0,0,1,17.671,0,43.6,43.6,0,0,1,15.677,6.6A43.969,43.969,0,0,1,84.238,26.776a43.62,43.62,0,0,1,2.555,8.229,44.166,44.166,0,0,1,.891,8.836A43.666,43.666,0,0,1,77.7,71.7,33.509,33.509,0,0,0,52.994,41.16a15.685,15.685,0,1,0-18.11,0A33.475,33.475,0,0,0,10.167,71.917Z" transform="translate(429.002 2281)" fill="#8710a0"/>
  </g>
</svg>
