<svg xmlns="http://www.w3.org/2000/svg" width="16.648" height="16.648" viewBox="0 0 16.648 16.648">
  <path id="Icon_metro-earth" data-name="Icon metro-earth" d="M10.895,1.928a8.324,8.324,0,1,0,8.324,8.324,8.324,8.324,0,0,0-8.324-8.324Zm0,15.608a7.259,7.259,0,0,1-2.881-.593L11.8,12.679a.52.52,0,0,0,.131-.346V10.772a.52.52,0,0,0-.52-.52c-1.837,0-3.775-1.91-3.794-1.929a.52.52,0,0,0-.368-.152H5.172a.52.52,0,0,0-.52.52v3.122a.52.52,0,0,0,.288.465l1.793.9V16.23a7.288,7.288,0,0,1-2.42-9.1h1.9a.52.52,0,0,0,.368-.152L8.661,4.9a.52.52,0,0,0,.152-.368V3.271a7.3,7.3,0,0,1,5.272.433c-.067.057-.133.116-.2.179A3.122,3.122,0,0,0,16.1,9.212q.077,0,.155,0a12.217,12.217,0,0,1-.137,6.053.519.519,0,0,0-.014.085,7.261,7.261,0,0,1-5.2,2.189Z" transform="translate(-2.571 -1.928)" opacity="0.55"/>
</svg>
