<svg xmlns="http://www.w3.org/2000/svg" width="22.337" height="22.337" viewBox="0 0 22.337 22.337">
  <path id="Icon_material-speaker-notes" data-name="Icon material-speaker-notes" d="M23.1,3H5.234A2.231,2.231,0,0,0,3.011,5.234L3,25.337,7.467,20.87H23.1a2.24,2.24,0,0,0,2.234-2.234V5.234A2.24,2.24,0,0,0,23.1,3ZM9.7,16.4H7.467V14.168H9.7Zm0-3.351H7.467V10.818H9.7ZM9.7,9.7H7.467V7.467H9.7Zm7.818,6.7H11.935V14.168h5.584Zm3.351-3.351H11.935V10.818H20.87Zm0-3.351H11.935V7.467H20.87Z" transform="translate(-3 -3)" fill="#ababab"/>
</svg>
