<svg xmlns="http://www.w3.org/2000/svg" width="17.938" height="17.938" viewBox="0 0 17.938 17.938">
  <path id="Icon_awesome-info-circle" data-name="Icon awesome-info-circle" d="M9.531.563A8.969,8.969,0,1,0,18.5,9.531,8.97,8.97,0,0,0,9.531.563Zm0,3.978A1.519,1.519,0,1,1,8.012,6.059,1.519,1.519,0,0,1,9.531,4.541Zm2.025,9.186a.434.434,0,0,1-.434.434H7.94a.434.434,0,0,1-.434-.434v-.868a.434.434,0,0,1,.434-.434h.434V10.11H7.94a.434.434,0,0,1-.434-.434V8.808a.434.434,0,0,1,.434-.434h2.315a.434.434,0,0,1,.434.434v3.616h.434a.434.434,0,0,1,.434.434Z" transform="translate(-0.563 -0.563)" fill="#963cfb"/>
</svg>
