<svg xmlns="http://www.w3.org/2000/svg" width="16.304" height="16.335" viewBox="0 0 16.304 16.335">
  <path id="Icon_feather-phone" data-name="Icon feather-phone" stroke="#000" d="M18.471,14.48v2.308a1.539,1.539,0,0,1-1.677,1.539,15.227,15.227,0,0,1-6.64-2.362,15,15,0,0,1-4.617-4.617A15.227,15.227,0,0,1,3.174,4.677,1.539,1.539,0,0,1,4.705,3H7.014A1.539,1.539,0,0,1,8.553,4.323a9.88,9.88,0,0,0,.539,2.162,1.539,1.539,0,0,1-.346,1.624l-.977.977A12.311,12.311,0,0,0,12.384,13.7l.977-.977a1.539,1.539,0,0,1,1.624-.346,9.88,9.88,0,0,0,2.162.539,1.539,1.539,0,0,1,1.323,1.562Z" fill="none" transform="translate(-2.667 -2.5)" stroke-linecap="round" stroke-linejoin="round" stroke-width="1" opacity="0.66"/>
</svg>
