<svg xmlns="http://www.w3.org/2000/svg" width="1915.999" height="279" viewBox="0 0 1915.999 279">
  <path id="Intersection_12" data-name="Intersection 12" d="M-6203.336,279.628A106.777,106.777,0,0,1-6260.5,296a108.407,108.407,0,0,1-29.676-4.109A105.518,105.518,0,0,1-6368.5,326c-47.547,0-87.6-30.511-99.735-72.083-1.413.056-2.839.084-4.265.084a106.512,106.512,0,0,1-62.45-19.945c-14.984,36.83-52.563,62.943-96.55,62.943a106.214,106.214,0,0,1-67.311-23.673A106.083,106.083,0,0,1-6768.5,299c-45.48,0-84.111-27.922-98-66.733-13.89,38.811-52.52,66.733-98,66.733a109.108,109.108,0,0,1-20.69-1.968A105.868,105.868,0,0,1-7058.5,326c-56.551,0-102.51-43.158-103.484-96.754A106.927,106.927,0,0,1-7216.5,244a109,109,0,0,1-21.591-2.148c-7.3,47.6-50.368,84.147-102.41,84.147-37.047,0-69.55-18.525-87.834-46.373A106.784,106.784,0,0,1-7485.5,296a108.383,108.383,0,0,1-29.676-4.109A105.518,105.518,0,0,1-7593.5,326c-47.547,0-87.6-30.511-99.737-72.083-1.413.056-2.837.084-4.265.084a106.509,106.509,0,0,1-62.448-19.945C-7774.934,270.886-7812.513,297-7856.5,297a106.877,106.877,0,0,1-55.5-15.344V115.344A106.877,106.877,0,0,1-7856.5,100a106.5,106.5,0,0,1,62.448,19.943C-7779.067,83.116-7741.488,57-7697.5,57c47.547,0,87.6,30.511,99.735,72.081q2.122-.081,4.267-.082a108.383,108.383,0,0,1,29.674,4.109A105.522,105.522,0,0,1-7485.5,99c37.047,0,69.55,18.527,87.837,46.375A106.777,106.777,0,0,1-7340.5,129a109.032,109.032,0,0,1,21.593,2.148C-7311.608,83.548-7268.54,47-7216.5,47c56.551,0,102.508,43.158,103.484,96.754A106.916,106.916,0,0,1-7058.5,129a109.111,109.111,0,0,1,20.69,1.97A105.868,105.868,0,0,1-6964.5,102c45.482,0,84.111,27.922,98,66.733,13.888-38.811,52.519-66.733,98-66.733a106.214,106.214,0,0,1,67.31,23.673A106.083,106.083,0,0,1-6631.5,100a106.513,106.513,0,0,1,62.45,19.943C-6554.067,83.116-6516.489,57-6472.5,57c47.545,0,87.6,30.511,99.735,72.081,1.413-.054,2.839-.082,4.265-.082a108.4,108.4,0,0,1,29.676,4.109A105.515,105.515,0,0,1-6260.5,99c37.047,0,69.55,18.527,87.837,46.375A106.779,106.779,0,0,1-6115.5,129a109.011,109.011,0,0,1,21.591,2.148c7.088-46.219,47.9-82.018,97.907-84.055V243.909a108.681,108.681,0,0,1-17.09-2.056c-7.3,47.6-50.368,84.147-102.408,84.147C-6152.548,326-6185.049,307.475-6203.336,279.628Z" transform="translate(7912 -47)" fill="#f6f6f6"/>
</svg>
