<svg xmlns="http://www.w3.org/2000/svg" width="1926.998" height="279" viewBox="0 0 1926.998 279">
  <path id="Intersection_11" data-name="Intersection 11" d="M-6199.336,373.627A106.776,106.776,0,0,1-6256.5,390a108.409,108.409,0,0,1-29.678-4.109A105.515,105.515,0,0,1-6364.5,420c-47.547,0-87.6-30.511-99.735-72.083-1.413.056-2.839.084-4.265.084a106.514,106.514,0,0,1-62.45-19.943C-6545.935,364.885-6583.514,391-6627.5,391a106.219,106.219,0,0,1-67.31-23.675A106.085,106.085,0,0,1-6764.5,393c-45.479,0-84.111-27.924-98-66.735-13.888,38.811-52.52,66.735-98,66.735a109.1,109.1,0,0,1-20.69-1.97A105.852,105.852,0,0,1-7054.5,420c-56.551,0-102.508-43.158-103.485-96.754A106.92,106.92,0,0,1-7212.5,338a109.011,109.011,0,0,1-21.591-2.148c-7.3,47.6-50.368,84.147-102.41,84.147-37.047,0-69.548-18.525-87.834-46.373A106.78,106.78,0,0,1-7481.5,390a108.392,108.392,0,0,1-29.676-4.109A105.515,105.515,0,0,1-7589.5,420c-47.547,0-87.6-30.511-99.735-72.083-1.414.056-2.838.084-4.265.084a106.5,106.5,0,0,1-62.448-19.943C-7770.935,364.885-7808.513,391-7852.5,391c-57.162,0-103.5-44.1-103.5-98.5s46.336-98.5,103.5-98.5a106.5,106.5,0,0,1,62.448,19.943C-7775.068,177.116-7737.489,151-7693.5,151c47.545,0,87.6,30.511,99.735,72.083,1.412-.056,2.839-.082,4.265-.082a108.407,108.407,0,0,1,29.676,4.107A105.516,105.516,0,0,1-7481.5,193c37.049,0,69.55,18.525,87.836,46.373A106.778,106.778,0,0,1-7336.5,223a109.016,109.016,0,0,1,21.593,2.146c7.3-47.6,50.368-84.147,102.408-84.147,56.551,0,102.51,43.158,103.485,96.754A106.924,106.924,0,0,1-7054.5,223a109.087,109.087,0,0,1,20.69,1.968A105.869,105.869,0,0,1-6960.5,196c45.481,0,84.113,27.922,98,66.735,13.888-38.813,52.52-66.735,98-66.735a106.2,106.2,0,0,1,67.311,23.675A106.077,106.077,0,0,1-6627.5,194a106.509,106.509,0,0,1,62.45,19.943C-6550.066,177.116-6512.487,151-6468.5,151c47.547,0,87.6,30.511,99.735,72.083,1.413-.056,2.839-.082,4.265-.082a108.386,108.386,0,0,1,29.676,4.107A105.517,105.517,0,0,1-6256.5,193c37.047,0,69.548,18.525,87.835,46.373A106.782,106.782,0,0,1-6111.5,223a109,109,0,0,1,21.591,2.146c5.229-34.1,28.817-62.526,60.908-75.909V380.99c-18.9,23.7-48.821,39.01-82.5,39.01C-6148.547,420-6181.049,401.475-6199.336,373.627Z" transform="translate(7955.999 -141)" fill="#ececec"/>
</svg>
